<svg xmlns="http://www.w3.org/2000/svg" viewBox="0 0 614.4332886 240"><path d="M446.034 205.95l8.938-9.705h-8.554l-5.812 9.705h5.428zm-280.074-3.51h-7.786v8.5h-4.715v5.209h4.715v16.723c0 1.426.238 2.577.713 3.455.474.877 1.124 1.554 1.946 2.028.823.476 1.773.795 2.851.96 1.078.164 2.221.246 3.427.246.768 0 1.554-.019 2.358-.054a18.56 18.56 0 0 0 2.194-.22v-6.031c-.366.074-.75.128-1.152.165-.403.036-.822.054-1.26.054-1.317 0-2.194-.22-2.633-.658-.439-.438-.658-1.315-.658-2.632V216.15h5.703v-5.21h-5.703v-8.498zm-22.59 23.36c0 2.888-.475 4.962-1.425 6.223-.95 1.261-2.486 1.892-4.606 1.892-1.864 0-3.162-.576-3.892-1.727-.733-1.152-1.097-2.897-1.097-5.237v-16.01h-7.787v17.436c0 1.755.156 3.354.467 4.798.31 1.444.85 2.668 1.617 3.673.768 1.006 1.818 1.782 3.153 2.33 1.334.549 3.043.823 5.127.823 1.645 0 3.253-.366 4.825-1.097 1.571-.73 2.851-1.919 3.838-3.563h.164v3.947h7.403V210.94h-7.786v14.859zm67.497 1.26h-.11l-9.157-26.921h-12.117v39.15h8.06v-27.471h.11l9.594 27.47h6.635l9.595-27.744h.11v27.744h8.061v-39.149H219.53l-8.663 26.922zm191.522-21.11l8.938-9.704h-8.554l-5.812 9.705h5.428zm-317.741-3.508h-7.786v8.499h-4.716v5.209h4.716v16.723c0 1.426.237 2.577.712 3.455s1.125 1.554 1.947 2.028c.823.476 1.772.795 2.851.96 1.078.164 2.22.246 3.427.246.768 0 1.554-.019 2.358-.054.804-.037 1.535-.11 2.194-.22v-6.031c-.367.074-.75.128-1.152.165-.403.036-.823.054-1.261.054-1.316 0-2.193-.22-2.633-.658-.438-.438-.657-1.315-.657-2.632V216.15h5.703v-5.21h-5.703v-8.498zM39.304 213.38c-.768-1.006-1.82-1.791-3.153-2.358-1.335-.567-3.044-.85-5.127-.85-1.645 0-3.254.375-4.825 1.124-1.572.75-2.851 1.947-3.839 3.592h-.164v-3.948h-7.402v28.347h7.786v-14.86c0-2.886.475-4.961 1.425-6.222s2.486-1.892 4.606-1.892c1.865 0 3.162.576 3.893 1.727.73 1.152 1.097 2.898 1.097 5.237v16.01h7.786v-17.436c0-1.754-.156-3.353-.466-4.798-.31-1.443-.85-2.668-1.617-3.673zm198.32 25.907h7.786V210.94h-7.785v28.347zM116.12 202.441h-7.787v8.499h-4.715v5.209h4.715v16.723c0 1.426.238 2.577.713 3.455s1.125 1.554 1.947 2.028c.822.476 1.772.795 2.851.96 1.078.164 2.22.246 3.427.246.768 0 1.554-.019 2.358-.054.804-.037 1.535-.11 2.193-.22v-6.031c-.366.074-.75.128-1.152.165-.402.036-.822.054-1.26.054-1.316 0-2.193-.22-2.633-.658-.438-.438-.657-1.315-.657-2.632V216.15h5.702v-5.21h-5.702v-8.498zm-22.81 36.846h7.786V210.94h-7.785v28.347zm0-32.734h7.786v-6.415h-7.785v6.415zM.429 239.287h8.609v-39.149H.428v39.15zm67.99-14.667a10.953 10.953 0 0 0-2.879-1.453 33.194 33.194 0 0 0-3.318-.932 134.503 134.503 0 0 0-3.234-.713 25.18 25.18 0 0 1-2.824-.74c-.822-.274-1.49-.63-2.001-1.07-.513-.438-.768-1.004-.768-1.699 0-.584.146-1.05.439-1.399a2.882 2.882 0 0 1 1.07-.794 4.736 4.736 0 0 1 1.397-.357c.512-.054.987-.082 1.426-.082 1.388 0 2.595.265 3.618.795 1.023.53 1.59 1.545 1.7 3.043h7.402c-.146-1.754-.594-3.208-1.343-4.359a8.88 8.88 0 0 0-2.824-2.769c-1.133-.694-2.422-1.187-3.865-1.48a22.48 22.48 0 0 0-4.47-.439 24.34 24.34 0 0 0-4.495.411c-1.463.274-2.779.75-3.948 1.426a7.884 7.884 0 0 0-2.824 2.769c-.712 1.17-1.069 2.668-1.069 4.496 0 1.243.255 2.294.768 3.153a6.65 6.65 0 0 0 2.028 2.138c.84.567 1.8 1.024 2.88 1.37 1.077.349 2.183.65 3.317.906 2.777.585 4.942 1.17 6.497 1.754 1.553.586 2.33 1.463 2.33 2.632 0 .695-.165 1.27-.493 1.727-.33.458-.74.823-1.234 1.097a5.858 5.858 0 0 1-1.645.603 8.273 8.273 0 0 1-1.727.192 8.85 8.85 0 0 1-2.221-.274c-.713-.183-1.344-.466-1.892-.85s-.996-.878-1.343-1.48c-.348-.603-.52-1.325-.52-2.166H44.95c.073 1.9.502 3.482 1.289 4.743.785 1.26 1.79 2.275 3.015 3.043s2.623 1.316 4.195 1.645 3.18.493 4.825.493c1.608 0 3.188-.156 4.743-.466 1.553-.31 2.933-.85 4.14-1.618a8.996 8.996 0 0 0 2.933-3.043c.75-1.26 1.124-2.823 1.124-4.688 0-1.316-.256-2.42-.768-3.317a7.036 7.036 0 0 0-2.028-2.248zm350.585 14.667h7.785v-39.149h-7.785v39.15zm36.763-23.96c-1.15-1.572-2.623-2.825-4.413-3.757-1.792-.932-3.893-1.398-6.306-1.398-2.157 0-4.122.384-5.894 1.151-1.773.768-3.3 1.82-4.58 3.153-1.279 1.335-2.265 2.916-2.96 4.743-.694 1.828-1.042 3.802-1.042 5.922 0 2.193.338 4.204 1.015 6.031.676 1.829 1.636 3.4 2.878 4.716 1.243 1.316 2.76 2.33 4.552 3.043 1.79.713 3.8 1.069 6.03 1.069 3.218 0 5.959-.73 8.226-2.193 2.266-1.462 3.947-3.893 5.044-7.293h-6.854c-.256.878-.951 1.71-2.083 2.495-1.133.787-2.486 1.179-4.058 1.179-2.193 0-3.875-.566-5.044-1.7-1.17-1.132-1.81-2.96-1.92-5.483h20.453c.146-2.193-.037-4.295-.549-6.305s-1.343-3.802-2.495-5.374zm-17.408 6.743c.036-.548.155-1.17.356-1.864a5.71 5.71 0 0 1 1.042-1.974c.493-.621 1.151-1.142 1.973-1.562.823-.42 1.856-.631 3.099-.631 1.9 0 3.317.512 4.25 1.535.931 1.024 1.58 2.523 1.946 4.496h-12.666zm-26.236-6.744c-1.152-1.571-2.623-2.824-4.414-3.756-1.792-.932-3.893-1.398-6.306-1.398-2.157 0-4.121.384-5.894 1.151-1.773.768-3.3 1.82-4.579 3.153-1.28 1.335-2.266 2.916-2.96 4.743-.695 1.828-1.043 3.802-1.043 5.922 0 2.193.338 4.204 1.015 6.031.676 1.829 1.636 3.4 2.879 4.716 1.242 1.316 2.76 2.33 4.551 3.043 1.79.713 3.801 1.069 6.031 1.069 3.217 0 5.958-.73 8.225-2.193 2.266-1.462 3.947-3.893 5.044-7.293h-6.854c-.256.878-.95 1.71-2.083 2.495-1.133.787-2.486 1.179-4.058 1.179-2.193 0-3.875-.566-5.044-1.7-1.17-1.132-1.81-2.96-1.92-5.483h20.453c.146-2.193-.037-4.295-.549-6.305s-1.342-3.802-2.494-5.374zm-17.41 6.744c.037-.548.156-1.17.357-1.864.2-.694.548-1.352 1.042-1.974.493-.621 1.151-1.142 1.974-1.562.822-.42 1.855-.631 3.098-.631 1.9 0 3.317.512 4.25 1.535.932 1.024 1.58 2.523 1.946 4.496h-12.666zm-2.52-21.932h-32.077v7.237h11.733v31.912h8.61v-31.912h11.733v-7.237zm-154.567 6.415h7.785v-6.415h-7.785v6.415zm279.744 7.704c-1.28-1.297-2.824-2.303-4.633-3.016-1.81-.713-3.83-1.069-6.059-1.069-2.23 0-4.241.356-6.032 1.069-1.791.713-3.326 1.719-4.606 3.016-1.28 1.298-2.267 2.87-2.96 4.715-.695 1.847-1.042 3.903-1.042 6.169 0 2.267.347 4.314 1.042 6.14.693 1.83 1.68 3.392 2.96 4.69 1.28 1.297 2.815 2.293 4.606 2.987 1.79.694 3.802 1.042 6.032 1.042s4.25-.348 6.059-1.042c1.81-.694 3.353-1.69 4.633-2.988 1.279-1.297 2.266-2.86 2.96-4.688.694-1.827 1.043-3.874 1.043-6.141 0-2.266-.349-4.322-1.042-6.169-.695-1.845-1.682-3.417-2.961-4.715zm-4.112 14.201c-.22 1.079-.595 2.048-1.125 2.906a5.915 5.915 0 0 1-2.138 2.057c-.896.512-2.001.767-3.317.767s-2.413-.255-3.29-.767a5.975 5.975 0 0 1-2.111-2.057c-.53-.858-.905-1.827-1.124-2.906a16.566 16.566 0 0 1-.329-3.317c0-1.133.11-2.248.33-3.345.218-1.096.593-2.064 1.123-2.906a6.312 6.312 0 0 1 2.111-2.056c.877-.53 1.974-.795 3.29-.795s2.42.266 3.317.795a6.242 6.242 0 0 1 2.138 2.056c.53.842.905 1.81 1.125 2.906a17.044 17.044 0 0 1 0 6.662zm-33.146 4.167c-1.006 1.042-2.44 1.563-4.304 1.563-1.207 0-2.23-.274-3.07-.823a6.14 6.14 0 0 1-2.002-2.11 9.664 9.664 0 0 1-1.069-2.88 15.33 15.33 0 0 1-.329-3.125c0-1.06.11-2.128.33-3.207a9.476 9.476 0 0 1 1.123-2.961 6.748 6.748 0 0 1 2.056-2.193c.841-.567 1.883-.85 3.125-.85 3.327 0 5.246 1.627 5.758 4.88h7.621c-.11-1.828-.548-3.408-1.316-4.743a10.724 10.724 0 0 0-2.988-3.345c-1.225-.895-2.614-1.562-4.167-2.001a17.774 17.774 0 0 0-4.852-.658c-2.304 0-4.351.384-6.142 1.151-1.791.768-3.309 1.837-4.55 3.208-1.244 1.37-2.186 2.998-2.824 4.88-.64 1.883-.96 3.92-.96 6.114 0 2.12.347 4.067 1.042 5.84.693 1.773 1.663 3.298 2.906 4.578 1.242 1.28 2.75 2.275 4.523 2.988 1.773.713 3.72 1.069 5.84 1.069 3.765 0 6.854-.987 9.267-2.96 2.412-1.975 3.874-4.844 4.386-8.61h-7.512c-.256 1.755-.886 3.153-1.892 4.195zm85.947-20.15c-.913-.804-2.01-1.389-3.289-1.755-1.28-.365-2.67-.548-4.168-.548-1.973 0-3.683.475-5.126 1.426-1.444.95-2.587 2.047-3.427 3.29-.768-1.755-1.892-2.98-3.372-3.674-1.481-.694-3.117-1.042-4.908-1.042-1.864 0-3.518.403-4.962 1.206-1.445.805-2.678 1.938-3.7 3.4h-.111v-3.838h-7.347v28.347h7.786v-16.449c0-1.389.2-2.513.603-3.372.402-.859.886-1.516 1.453-1.974.567-.457 1.152-.768 1.755-.932.603-.165 1.086-.247 1.453-.247 1.242 0 2.183.21 2.823.63.64.421 1.097.979 1.371 1.673a7.02 7.02 0 0 1 .467 2.275c.035.823.054 1.655.054 2.495v15.901h7.786v-15.791c0-.877.064-1.745.192-2.605.128-.858.384-1.626.768-2.302a4.566 4.566 0 0 1 1.59-1.645c.675-.42 1.563-.631 2.66-.631 1.096 0 1.964.183 2.604.548.639.366 1.124.86 1.453 1.48.329.623.529 1.354.603 2.194.072.842.11 1.736.11 2.687v16.065h7.786v-18.971c0-1.828-.256-3.39-.768-4.688-.513-1.297-1.225-2.349-2.139-3.153zm-221.79 15.188h16.505v-6.69h-16.505v6.69zm-38.353-12.337c-1.151-1.571-2.623-2.824-4.414-3.756-1.791-.932-3.893-1.398-6.306-1.398-2.156 0-4.121.384-5.894 1.151-1.773.768-3.299 1.82-4.578 3.153-1.28 1.335-2.267 2.916-2.961 4.743-.695 1.828-1.042 3.802-1.042 5.922 0 2.193.338 4.204 1.015 6.031.676 1.829 1.635 3.4 2.878 4.716 1.243 1.316 2.76 2.33 4.551 3.043 1.791.713 3.801 1.069 6.031 1.069 3.217 0 5.958-.73 8.225-2.193 2.267-1.462 3.948-3.893 5.045-7.293h-6.854c-.256.878-.951 1.71-2.084 2.495-1.133.787-2.486 1.179-4.057 1.179-2.193 0-3.875-.566-5.045-1.7-1.17-1.132-1.81-2.96-1.919-5.483h20.452c.146-2.193-.037-4.295-.548-6.305-.512-2.01-1.343-3.802-2.495-5.374zm-17.409 6.744c.036-.548.155-1.17.357-1.864.2-.694.548-1.352 1.042-1.974.493-.621 1.15-1.142 1.973-1.562.823-.42 1.855-.631 3.099-.631 1.9 0 3.316.512 4.249 1.535.932 1.024 1.58 2.523 1.946 4.496h-12.666zm-13.432-8.69c-.768-1.006-1.82-1.791-3.153-2.358-1.335-.567-3.043-.85-5.127-.85-1.645 0-3.254.375-4.825 1.124-1.572.75-2.851 1.947-3.838 3.592h-.165v-3.948h-7.402v28.347h7.786v-14.86c0-2.886.475-4.961 1.425-6.222s2.486-1.892 4.606-1.892c1.865 0 3.162.576 3.893 1.727.731 1.152 1.097 2.898 1.097 5.237v16.01h7.787v-17.436c0-1.754-.156-3.353-.467-4.798-.31-1.443-.85-2.668-1.617-3.673zm59.6 11.24a10.953 10.953 0 0 0-2.879-1.453 33.195 33.195 0 0 0-3.317-.932 134.508 134.508 0 0 0-3.235-.713 25.238 25.238 0 0 1-2.824-.74c-.822-.274-1.49-.63-2-1.07-.513-.438-.769-1.004-.769-1.699 0-.584.146-1.05.439-1.399a2.882 2.882 0 0 1 1.07-.794 4.736 4.736 0 0 1 1.397-.357c.512-.054.987-.082 1.426-.082 1.388 0 2.595.265 3.618.795 1.023.53 1.591 1.545 1.7 3.043h7.402c-.146-1.754-.594-3.208-1.343-4.359a8.88 8.88 0 0 0-2.824-2.769c-1.133-.694-2.422-1.187-3.865-1.48-1.444-.293-2.933-.439-4.469-.439s-3.035.137-4.496.411c-1.463.274-2.778.75-3.948 1.426a7.884 7.884 0 0 0-2.824 2.769c-.712 1.17-1.069 2.668-1.069 4.496 0 1.243.255 2.294.768 3.153a6.65 6.65 0 0 0 2.028 2.138c.84.567 1.8 1.024 2.88 1.37 1.077.349 2.183.65 3.317.906 2.777.585 4.943 1.17 6.497 1.754 1.553.586 2.33 1.463 2.33 2.632 0 .695-.165 1.27-.493 1.727-.33.458-.74.823-1.234 1.097a5.858 5.858 0 0 1-1.645.603 8.273 8.273 0 0 1-1.727.192c-.767 0-1.508-.09-2.221-.274-.713-.183-1.343-.466-1.892-.85s-.996-.878-1.343-1.48c-.348-.603-.52-1.325-.52-2.166h-7.403c.073 1.9.502 3.482 1.289 4.743a9.4 9.4 0 0 0 3.015 3.043c1.224.767 2.623 1.316 4.195 1.645s3.18.493 4.825.493c1.608 0 3.189-.156 4.743-.466 1.554-.31 2.933-.85 4.14-1.618a8.996 8.996 0 0 0 2.934-3.043c.748-1.26 1.123-2.823 1.123-4.688 0-1.316-.256-2.42-.768-3.317a7.036 7.036 0 0 0-2.028-2.248zM0 175.783L174.976 0H0v175.783zm351.565 0V.2l-88.193 88.094L174.976 0v175.783h176.59zm86.28.604L614.432 0H438.651l-87.086 87.891h86.28v88.496z" fill="#00b7de"/></svg>