<?xml version="1.0" encoding="UTF-8" standalone="no"?>
<svg
   fill="none"
   height="33.380253"
   viewBox="0 0 34.587704 33.380253"
   width="34.587704"
   version="1.1"
   id="svg15"
   sodipodi:docname="orange-campus-logo.svg"
   inkscape:version="1.3.2 (1:1.3.2+202311252150+091e20ef0f)"
   xmlns:inkscape="http://www.inkscape.org/namespaces/inkscape"
   xmlns:sodipodi="http://sodipodi.sourceforge.net/DTD/sodipodi-0.dtd"
   xmlns="http://www.w3.org/2000/svg"
   xmlns:svg="http://www.w3.org/2000/svg">
  <defs
     id="defs15" />
  <sodipodi:namedview
     id="namedview15"
     pagecolor="#ffffff"
     bordercolor="#666666"
     borderopacity="1.0"
     inkscape:showpageshadow="2"
     inkscape:pageopacity="0.0"
     inkscape:pagecheckerboard="0"
     inkscape:deskcolor="#d1d1d1"
     inkscape:zoom="7.3636364"
     inkscape:cx="74.216049"
     inkscape:cy="16.5"
     inkscape:window-width="1920"
     inkscape:window-height="941"
     inkscape:window-x="0"
     inkscape:window-y="0"
     inkscape:window-maximized="1"
     inkscape:current-layer="svg15" />
  <path
     d="m 7.2934934,25.925796 c -1.67332,-1.4434 -4.22444,-1.4166 -5.87032,0.0535 -1.92020501,1.7107 -1.89277301,4.6509 0.05486,6.3349 1.67332,1.4434 4.22444,1.4167 5.87032,-0.0535 1.9202,-1.6839 1.89277,-4.6509 -0.05486,-6.3349 z"
     fill="#c1272d"
     id="path12" />
  <path
     d="m 29.979303,24.669496 c -0.4389,-0.0534 -3.3467,-0.4009 -5.7332,-2.4324 -0.0274,-0.0267 -0.0274,-0.0267 -0.0549,-0.0534 -2.6334,-2.8868 -2.7157,-7.2437 -0.192,-10.2107 0.1646,-0.1871 0.3292,-0.3742 0.5212,-0.5613 2.414,-2.3789599 5.6234,-2.8333699 6.0898,-2.8868299 h 0.0274 c 0,0 0,0 -0.0274,0 h 0.0274 0.0274 0.0275 c 1.0424,-0.10691 2.0848,-0.58805 2.8254,-1.44339 1.4264,-1.60378 1.4264,-4.00944 0,-5.61321 -1.7007,-1.89779798 -4.6633,-1.95125698 -6.4189,-0.18711 -0.7407,0.7217 -1.1522,1.65724 -1.2345,2.59277 v 0.02673 0.02673 0.02673 c 0,0 0,0 0,-0.02673 v 0.02673 c -0.0548,0.48113 -0.4389,3.60849 -2.8528,5.98738 -0.1646,0.1603999 -0.3566,0.3474999 -0.5487,0.4811999 -2.8254,2.3789 -6.995,2.5393 -10.0124,0.3742 -0.0275,-0.0267 -0.0549,-0.0267 -0.0549,-0.0535 -0.3292,-0.2405 -0.6583,-0.5346 -0.9052,-0.8819999 -1.7556396,-2.19187 -2.1122496,-4.65099 -2.1396796,-5.05193 v -0.02673 0.02673 -0.02673 -0.02673 0.02673 c -0.10972,-1.01573 -0.60349,-2.03145 -1.48129,-2.77988 -1.64589,-1.38992998 -4.11472,-1.38992998 -5.7606,0 -1.94763301,1.65723 -2.00249601,4.54403 -0.19202,6.25472 0.74065,0.7217 1.70075,1.12264 2.68828,1.20282 h -0.02743 0.02743 0.02743 -0.02743 0.02743 c 0.08229,0 0.24688,0.0267 0.49376,0.0535 3.9227,0.6414999 7.0224196,3.6084999 7.7356196,7.4040999 0.0549,0.2405 0.0549,0.4009 0.0823,0.4811 l 0.0275,-0.0267 c 0.0823,0.989 0.5212,1.9779 1.2892,2.7264 0.7681,0.7217 1.7282,1.1493 2.7432,1.2028 0.0823,0 0.2469,0.0267 0.4938,0.0535 3.9227,0.6415 7.0498,3.6085 7.763,7.4308 0.0549,0.2405 0.0549,0.4009 0.0823,0.4811 0.0823,0.989 0.5487,1.9513 1.3442,2.6997 1.6733,1.5503 4.3341,1.5503 6.0075,0 1.8104,-1.684 1.8379,-4.4638 0.0823,-6.1478 -0.823,-0.6682 -1.8105,-1.0692 -2.798,-1.1494 z"
     fill="#2e3192"
     id="path13" />
  <path
     d="m 25.261003,29.347196 v 0.0535 c 0.0275,0 0.0275,-0.0268 0,-0.0535 z"
     fill="#ffffff"
     id="path14" />
  <path
     d="m 12.862103,17.452496 v 0.0535 c 0.0274,0 0.0274,0 0,-0.0535 z"
     fill="#ffffff"
     id="path15" />
</svg>
